<svg width="459" height="169" viewBox="0 0 459 169" fill="none" xmlns="http://www.w3.org/2000/svg">
<rect y="4" width="248" height="63" fill="black"/>
<path d="M27.8516 45.207C27.8516 45.2539 27.4004 45.4648 26.498 45.8398C25.6074 46.2031 24.4766 46.5488 23.1055 46.877C21.7344 47.1934 20.2578 47.3516 18.6758 47.3516C15.0312 47.3516 12.2012 46.2852 10.1855 44.1523C8.16992 42.0195 7.16211 38.9492 7.16211 34.9414C7.16211 32.2109 7.6543 29.832 8.63867 27.8047C9.62305 25.7656 11.0176 24.1953 12.8223 23.0938C14.6387 21.9922 16.7715 21.4414 19.2207 21.4414C20.3926 21.4414 21.5762 21.5762 22.7715 21.8457C23.9785 22.1035 25.0391 22.3965 25.9531 22.7246C26.8672 23.041 27.3242 23.2109 27.3242 23.2344L27.1484 29.1758H24.793L23.7207 25.2207C23.6035 25.1738 23.3223 25.0977 22.877 24.9922C22.4316 24.875 21.8457 24.7637 21.1191 24.6582C20.4043 24.5527 19.6484 24.5 18.8516 24.5C16.4258 24.5 14.5566 25.3848 13.2441 27.1543C11.9434 28.9121 11.293 31.4492 11.293 34.7656C11.293 37.9062 12.0078 40.2793 13.4375 41.8848C14.8672 43.4902 16.7949 44.293 19.2207 44.293C19.959 44.293 20.6973 44.2285 21.4355 44.0996C22.1855 43.9707 22.8125 43.8359 23.3164 43.6953C23.8203 43.543 24.1367 43.4434 24.2656 43.3965V37.4902L21.207 36.7695V34.8008L30.5586 34.6074V36.7695L27.8516 37.4902V45.207ZM34.707 29C34.8945 28.9297 35.3633 28.7832 36.1133 28.5605C36.875 28.3262 37.7715 28.1035 38.8027 27.8926C39.834 27.6699 40.8066 27.5586 41.7207 27.5586C43.9004 27.5586 45.5527 27.9922 46.6777 28.8594C47.8145 29.7266 48.3828 31.1562 48.3828 33.1484V44.1172L51.2656 44.8379V46.8242L45.6758 47L44.9199 44.4863C44.1465 45.2598 43.25 45.9336 42.2305 46.5078C41.2227 47.0703 40.1504 47.3516 39.0137 47.3516C37.3145 47.3516 35.9902 46.8828 35.041 45.9453C34.0918 44.9961 33.6172 43.666 33.6172 41.9551C33.6172 39.9629 34.332 38.5391 35.7617 37.6836C37.1914 36.8164 39.2363 36.3828 41.8965 36.3828H44.7793V33.5C44.7793 32.4453 44.4863 31.6426 43.9004 31.0918C43.3145 30.541 42.4648 30.2656 41.3516 30.2656C40.707 30.2656 40.1152 30.3066 39.5762 30.3887C39.0371 30.4707 38.6094 30.5527 38.293 30.6348C37.9883 30.7168 37.8008 30.7695 37.7305 30.793L37.2207 33.5H34.8828L34.707 29ZM42.2656 38.7207C40.4844 38.7207 39.207 38.9609 38.4336 39.4414C37.6719 39.9219 37.291 40.7012 37.291 41.7793C37.291 42.5996 37.5254 43.2559 37.9941 43.748C38.4629 44.2402 39.1074 44.4863 39.9277 44.4863C40.7246 44.4863 41.4805 44.2695 42.1953 43.8359C42.9102 43.4023 43.5195 42.9336 44.0234 42.4297C44.5273 41.9258 44.7793 41.6504 44.7793 41.6035V38.7207H42.2656ZM60.0547 30.5469C60.7344 29.8086 61.5371 29.1289 62.4629 28.5078C63.4004 27.875 64.4141 27.5586 65.5039 27.5586C66.0312 27.5586 66.5293 27.5996 66.998 27.6816C67.4785 27.7637 67.8711 27.8516 68.1758 27.9453C68.4805 28.0273 68.668 28.0801 68.7383 28.1035L68.5625 33.3242H66.207L65.6797 30.6172C64.4844 30.6172 63.4531 30.9043 62.5859 31.4785C61.7188 32.0527 61.0098 32.7031 60.459 33.4297V44.1172L64.0625 45.0137V47H53.7969V45.0137L56.8555 44.1172V30.793L53.7969 30.0723V28.1035L59.7383 27.9277L60.0547 30.5469ZM82.9414 30.793C82.7773 30.7461 82.3848 30.6758 81.7637 30.582C81.1426 30.4883 80.457 30.4414 79.707 30.4414C77.9844 30.4414 76.6543 30.998 75.7168 32.1113C74.7793 33.2246 74.3105 34.8887 74.3105 37.1035C74.3105 39.5059 74.8027 41.3398 75.7871 42.6055C76.7715 43.8594 78.1367 44.4863 79.8828 44.4863C80.8906 44.4863 81.8105 44.3223 82.6426 43.9941C83.4746 43.666 84.1543 43.3203 84.6816 42.957C85.209 42.582 85.4727 42.3711 85.4727 42.3242L86.7383 44.4863C86.7383 44.5332 86.3633 44.8086 85.6133 45.3125C84.875 45.8164 83.9668 46.2852 82.8887 46.7188C81.8223 47.1406 80.7031 47.3516 79.5312 47.3516C76.6016 47.3516 74.3691 46.4844 72.834 44.75C71.2988 43.0156 70.5312 40.584 70.5312 37.4551C70.5312 35.5332 70.9121 33.8223 71.6738 32.3223C72.4473 30.8223 73.5371 29.6562 74.9434 28.8242C76.3496 27.9805 77.9961 27.5586 79.8828 27.5586C80.8438 27.5586 81.7812 27.6699 82.6953 27.8926C83.6094 28.1035 84.3535 28.3262 84.9277 28.5605C85.502 28.7832 85.8652 28.9297 86.0176 29L85.8242 33.8516H83.4863L82.9414 30.793ZM91.2207 21.9863C91.2207 21.1895 91.4492 20.5684 91.9062 20.123C92.3633 19.6777 92.9141 19.4551 93.5586 19.4551C95.1172 19.4551 95.8965 20.2988 95.8965 21.9863C95.8965 22.7598 95.6562 23.375 95.1758 23.832C94.6953 24.2773 94.1562 24.5 93.5586 24.5C92.8438 24.5 92.2754 24.2773 91.8535 23.832C91.4316 23.3867 91.2207 22.7715 91.2207 21.9863ZM98.2344 47H88.8828V45.0137L91.9414 44.1172V30.793L88.8828 30.0723V28.1035L95.5449 27.9277V44.1172L98.2344 45.0137V47ZM102.207 29C102.395 28.9297 102.863 28.7832 103.613 28.5605C104.375 28.3262 105.271 28.1035 106.303 27.8926C107.334 27.6699 108.307 27.5586 109.221 27.5586C111.4 27.5586 113.053 27.9922 114.178 28.8594C115.314 29.7266 115.883 31.1562 115.883 33.1484V44.1172L118.766 44.8379V46.8242L113.176 47L112.42 44.4863C111.646 45.2598 110.75 45.9336 109.73 46.5078C108.723 47.0703 107.65 47.3516 106.514 47.3516C104.814 47.3516 103.49 46.8828 102.541 45.9453C101.592 44.9961 101.117 43.666 101.117 41.9551C101.117 39.9629 101.832 38.5391 103.262 37.6836C104.691 36.8164 106.736 36.3828 109.396 36.3828H112.279V33.5C112.279 32.4453 111.986 31.6426 111.4 31.0918C110.814 30.541 109.965 30.2656 108.852 30.2656C108.207 30.2656 107.615 30.3066 107.076 30.3887C106.537 30.4707 106.109 30.5527 105.793 30.6348C105.488 30.7168 105.301 30.7695 105.23 30.793L104.721 33.5H102.383L102.207 29ZM109.766 38.7207C107.984 38.7207 106.707 38.9609 105.934 39.4414C105.172 39.9219 104.791 40.7012 104.791 41.7793C104.791 42.5996 105.025 43.2559 105.494 43.748C105.963 44.2402 106.607 44.4863 107.428 44.4863C108.225 44.4863 108.98 44.2695 109.695 43.8359C110.41 43.4023 111.02 42.9336 111.523 42.4297C112.027 41.9258 112.279 41.6504 112.279 41.6035V38.7207H109.766ZM143.621 26.1172L142.531 28.8242L136.959 40.1621L134.076 40.3379L128.504 28.6484L127.59 26.1172V44.1172L131.018 44.8379V47H121.297V44.8379L124.355 44.1172V24.6758L121.297 23.9551V21.9863L129.4 21.793L135.904 36.207L142.707 21.9863L150.283 21.793V23.9551L147.207 24.6758V44.1172L150.283 44.8379V47H140.193V44.8379L143.621 44.1172V26.1172ZM162.324 27.5586C164.984 27.5586 167.059 28.4199 168.547 30.1426C170.035 31.8535 170.779 34.1738 170.779 37.1035C170.779 39.1191 170.404 40.9062 169.654 42.4648C168.916 44.0234 167.861 45.2305 166.49 46.0859C165.131 46.9297 163.561 47.3516 161.779 47.3516C159.049 47.3516 156.928 46.5312 155.416 44.8906C153.904 43.25 153.148 40.8359 153.148 37.6484C153.148 35.6328 153.535 33.8633 154.309 32.3398C155.094 30.8047 156.178 29.627 157.561 28.8066C158.943 27.9746 160.531 27.5586 162.324 27.5586ZM162.148 30.4414C160.367 30.4414 159.049 31.0273 158.193 32.1992C157.35 33.3594 156.928 35.1113 156.928 37.4551C156.928 42.1309 158.609 44.4746 161.973 44.4863C163.73 44.4863 165.008 43.8887 165.805 42.6934C166.602 41.4863 167 39.6816 167 37.2793C167 32.7207 165.383 30.4414 162.148 30.4414ZM165.207 18.207L167.018 20.8965L159.459 25.5723L158.193 23.7793L165.207 18.207ZM182.275 43.7656L186.6 30.6172L184.121 30.0723V28.1035L192.189 27.9277V30.0723L190.203 30.4414L184.086 47H180.131L174.225 30.6172L172.414 30.0723V28.1035L180.518 27.9277V30.0723L178.004 30.4414L182.275 43.7656ZM197.568 38C197.568 39.9688 198.049 41.5449 199.01 42.7285C199.971 43.9004 201.23 44.4863 202.789 44.4863C203.844 44.4863 204.822 44.3398 205.725 44.0469C206.627 43.7539 207.371 43.4375 207.957 43.0977C208.543 42.7461 208.836 42.5469 208.836 42.5L210.102 44.3633C210.102 44.4102 209.709 44.7031 208.924 45.2422C208.15 45.7695 207.189 46.2559 206.041 46.7012C204.904 47.1348 203.697 47.3516 202.42 47.3516C199.584 47.3516 197.434 46.4961 195.969 44.7852C194.516 43.0742 193.789 40.6953 193.789 37.6484C193.789 35.75 194.158 34.0332 194.896 32.498C195.646 30.9629 196.689 29.7559 198.025 28.877C199.373 27.998 200.902 27.5586 202.613 27.5586C207.652 27.5586 210.172 30.377 210.172 36.0137C210.172 36.4004 210.148 36.7871 210.102 37.1738C210.055 37.5605 210.02 37.8125 209.996 37.9297L197.568 38ZM206.357 35.293C206.357 33.8281 206.041 32.6445 205.408 31.7422C204.787 30.8281 203.791 30.3711 202.42 30.3711C201.025 30.3711 199.918 30.8398 199.098 31.7773C198.289 32.7148 197.826 33.8867 197.709 35.293H206.357ZM215.568 21.9863C215.568 21.1895 215.797 20.5684 216.254 20.123C216.711 19.6777 217.262 19.4551 217.906 19.4551C219.465 19.4551 220.244 20.2988 220.244 21.9863C220.244 22.7598 220.004 23.375 219.523 23.832C219.043 24.2773 218.504 24.5 217.906 24.5C217.191 24.5 216.623 24.2773 216.201 23.832C215.779 23.3867 215.568 22.7715 215.568 21.9863ZM222.582 47H213.23V45.0137L216.289 44.1172V30.793L213.23 30.0723V28.1035L219.893 27.9277V44.1172L222.582 45.0137V47ZM228.418 44.3281C228.418 44.3516 228.717 44.416 229.314 44.5215C229.912 44.6152 230.621 44.6621 231.441 44.6621C234.148 44.6621 235.508 43.7129 235.52 41.8145C235.52 41.041 235.186 40.4609 234.518 40.0742C233.861 39.6758 232.836 39.2598 231.441 38.8262C230.164 38.416 229.127 38.0234 228.33 37.6484C227.545 37.2617 226.871 36.7109 226.309 35.9961C225.746 35.2695 225.465 34.332 225.465 33.1836C225.465 31.3789 226.074 29.9902 227.293 29.0176C228.523 28.0449 230.111 27.5586 232.057 27.5586C232.9 27.5586 233.773 27.6406 234.676 27.8047C235.59 27.957 236.363 28.1211 236.996 28.2969C237.641 28.4727 238.045 28.5898 238.209 28.6484L238.104 33.5H235.766L235.186 30.6875C235.115 30.6641 234.957 30.6172 234.711 30.5469C234.477 30.4766 234.143 30.4121 233.709 30.3535C233.275 30.2949 232.795 30.2656 232.268 30.2656C230.135 30.2656 229.068 31.0684 229.068 32.6738C229.068 33.4473 229.408 34.0449 230.088 34.4668C230.779 34.877 231.816 35.3105 233.199 35.7676C234.441 36.2012 235.461 36.6055 236.258 36.9805C237.055 37.3438 237.729 37.877 238.279 38.5801C238.83 39.2715 239.105 40.1445 239.105 41.1992C239.105 43.1914 238.355 44.7148 236.855 45.7695C235.355 46.8242 233.469 47.3516 231.195 47.3516C230.211 47.3516 229.297 47.293 228.453 47.1758C227.609 47.0586 226.936 46.9414 226.432 46.8242C225.928 46.707 225.617 46.6191 225.5 46.5605V41.2344H228.031L228.418 44.3281Z" fill="white"/>
</svg>
