<svg width="446" height="112" viewBox="0 0 446 112" fill="none" xmlns="http://www.w3.org/2000/svg">
<rect y="6" width="446" height="106" fill="black"/>
<path d="M49.2598 82.7627C49.2598 82.8473 48.4451 83.2282 46.8159 83.9053C45.2078 84.5612 43.166 85.1854 40.6904 85.7778C38.2148 86.3491 35.5488 86.6348 32.6924 86.6348C26.112 86.6348 21.0021 84.7093 17.3628 80.8584C13.7235 77.0075 11.9038 71.4639 11.9038 64.2275C11.9038 59.2975 12.7925 55.0023 14.5698 51.3418C16.3472 47.6602 18.8651 44.8249 22.1235 42.8359C25.4032 40.847 29.2541 39.8525 33.6763 39.8525C35.7922 39.8525 37.9292 40.0959 40.0874 40.5825C42.2668 41.048 44.1816 41.577 45.832 42.1694C47.4824 42.7407 48.3076 43.0475 48.3076 43.0898L47.9902 53.8174H43.7373L41.8013 46.6763C41.5897 46.5916 41.0819 46.4541 40.2778 46.2637C39.4738 46.0521 38.4159 45.8511 37.104 45.6606C35.8133 45.4702 34.4486 45.375 33.0098 45.375C28.6299 45.375 25.255 46.9725 22.8853 50.1675C20.5366 53.3413 19.3623 57.9222 19.3623 63.9102C19.3623 69.5807 20.653 73.8654 23.2344 76.7642C25.8158 79.6629 29.2964 81.1123 33.6763 81.1123C35.0093 81.1123 36.3423 80.9959 37.6753 80.7632C39.0295 80.5304 40.1615 80.2871 41.0713 80.0332C41.9811 79.7581 42.5524 79.5783 42.7852 79.4937V68.8296L37.2627 67.5283V63.9736L54.1475 63.6245V67.5283L49.2598 68.8296V82.7627ZM61.6377 53.5C61.9762 53.373 62.8226 53.1086 64.1768 52.7065C65.5521 52.2834 67.1707 51.8813 69.0327 51.5005C70.8947 51.0985 72.6509 50.8975 74.3013 50.8975C78.2368 50.8975 81.2202 51.6803 83.2515 53.2461C85.3039 54.8118 86.3301 57.3932 86.3301 60.9902V80.7949L91.5352 82.0962V85.6826L81.4424 86L80.0776 81.4614C78.6812 82.8579 77.0625 84.0745 75.2217 85.1113C73.402 86.127 71.466 86.6348 69.4136 86.6348C66.3455 86.6348 63.9546 85.7884 62.2407 84.0957C60.5269 82.3818 59.6699 79.9803 59.6699 76.8911C59.6699 73.2941 60.9606 70.7233 63.542 69.1787C66.1234 67.613 69.8156 66.8301 74.6187 66.8301H79.8237V61.625C79.8237 59.7207 79.2948 58.2713 78.2368 57.2769C77.1789 56.2824 75.6449 55.7852 73.6348 55.7852C72.471 55.7852 71.4025 55.8592 70.4292 56.0073C69.4559 56.1554 68.6836 56.3035 68.1123 56.4517C67.5622 56.5998 67.2236 56.695 67.0967 56.7373L66.1763 61.625H61.9551L61.6377 53.5ZM75.2852 71.0513C72.069 71.0513 69.7627 71.485 68.3662 72.3525C66.9909 73.2201 66.3032 74.6271 66.3032 76.5737C66.3032 78.0549 66.7264 79.2397 67.5728 80.1284C68.4191 81.0171 69.5828 81.4614 71.064 81.4614C72.5028 81.4614 73.8675 81.07 75.1582 80.2871C76.4489 79.5042 77.5492 78.6579 78.459 77.748C79.3688 76.8382 79.8237 76.341 79.8237 76.2563V71.0513H75.2852ZM107.404 56.293C108.632 54.96 110.081 53.7327 111.752 52.6113C113.445 51.4688 115.275 50.8975 117.243 50.8975C118.195 50.8975 119.095 50.9715 119.941 51.1196C120.808 51.2677 121.517 51.4264 122.067 51.5957C122.618 51.7438 122.956 51.839 123.083 51.8813L122.766 61.3076H118.513L117.561 56.4199C115.402 56.4199 113.54 56.9383 111.975 57.9751C110.409 59.0119 109.129 60.1862 108.134 61.498V80.7949L114.641 82.4136V86H96.1055V82.4136L101.628 80.7949V56.7373L96.1055 55.436V51.8813L106.833 51.564L107.404 56.293ZM148.728 56.7373C148.431 56.6527 147.722 56.5257 146.601 56.3564C145.48 56.1872 144.242 56.1025 142.888 56.1025C139.777 56.1025 137.376 57.1076 135.683 59.1177C133.99 61.1278 133.144 64.1323 133.144 68.1313C133.144 72.4689 134.033 75.7803 135.81 78.0654C137.587 80.3294 140.052 81.4614 143.205 81.4614C145.025 81.4614 146.686 81.1652 148.188 80.5728C149.69 79.9803 150.917 79.3561 151.87 78.7002C152.822 78.0231 153.298 77.6423 153.298 77.5576L155.583 81.4614C155.583 81.5461 154.906 82.0433 153.552 82.9531C152.219 83.863 150.579 84.7093 148.632 85.4922C146.707 86.2539 144.686 86.6348 142.57 86.6348C137.281 86.6348 133.25 85.069 130.478 81.9375C127.706 78.806 126.32 74.4155 126.32 68.7661C126.32 65.2961 127.008 62.2069 128.383 59.4985C129.78 56.7902 131.748 54.6849 134.287 53.1826C136.826 51.6592 139.799 50.8975 143.205 50.8975C144.94 50.8975 146.633 51.0985 148.283 51.5005C149.934 51.8813 151.277 52.2834 152.314 52.7065C153.351 53.1086 154.007 53.373 154.282 53.5L153.933 62.2598H149.711L148.728 56.7373ZM163.676 40.8364C163.676 39.3976 164.089 38.2762 164.914 37.4722C165.739 36.6681 166.734 36.2661 167.897 36.2661C170.712 36.2661 172.119 37.7896 172.119 40.8364C172.119 42.2329 171.685 43.3438 170.817 44.1689C169.95 44.973 168.977 45.375 167.897 45.375C166.607 45.375 165.581 44.973 164.819 44.1689C164.057 43.3649 163.676 42.2541 163.676 40.8364ZM176.34 86H159.455V82.4136L164.978 80.7949V56.7373L159.455 55.436V51.8813L171.484 51.564V80.7949L176.34 82.4136V86ZM183.513 53.5C183.851 53.373 184.698 53.1086 186.052 52.7065C187.427 52.2834 189.046 51.8813 190.908 51.5005C192.77 51.0985 194.526 50.8975 196.176 50.8975C200.112 50.8975 203.095 51.6803 205.126 53.2461C207.179 54.8118 208.205 57.3932 208.205 60.9902V80.7949L213.41 82.0962V85.6826L203.317 86L201.953 81.4614C200.556 82.8579 198.938 84.0745 197.097 85.1113C195.277 86.127 193.341 86.6348 191.289 86.6348C188.221 86.6348 185.83 85.7884 184.116 84.0957C182.402 82.3818 181.545 79.9803 181.545 76.8911C181.545 73.2941 182.836 70.7233 185.417 69.1787C187.998 67.613 191.691 66.8301 196.494 66.8301H201.699V61.625C201.699 59.7207 201.17 58.2713 200.112 57.2769C199.054 56.2824 197.52 55.7852 195.51 55.7852C194.346 55.7852 193.278 55.8592 192.304 56.0073C191.331 56.1554 190.559 56.3035 189.987 56.4517C189.437 56.5998 189.099 56.695 188.972 56.7373L188.051 61.625H183.83L183.513 53.5ZM197.16 71.0513C193.944 71.0513 191.638 71.485 190.241 72.3525C188.866 73.2201 188.178 74.6271 188.178 76.5737C188.178 78.0549 188.601 79.2397 189.448 80.1284C190.294 81.0171 191.458 81.4614 192.939 81.4614C194.378 81.4614 195.743 81.07 197.033 80.2871C198.324 79.5042 199.424 78.6579 200.334 77.748C201.244 76.8382 201.699 76.341 201.699 76.2563V71.0513H197.16ZM258.288 48.2949L256.32 53.1826L246.259 73.6538L241.054 73.9712L230.993 52.8652L229.343 48.2949V80.7949L235.532 82.0962V86H217.98V82.0962L223.503 80.7949V45.6924L217.98 44.3911V40.8364L232.612 40.4873L244.355 66.5127L256.638 40.8364L270.317 40.4873V44.3911L264.763 45.6924V80.7949L270.317 82.0962V86H252.099V82.0962L258.288 80.7949V48.2949ZM292.058 50.8975C296.861 50.8975 300.606 52.4526 303.293 55.563C305.98 58.6522 307.324 62.8416 307.324 68.1313C307.324 71.7707 306.647 74.9974 305.292 77.8115C303.959 80.6257 302.055 82.805 299.58 84.3496C297.125 85.873 294.29 86.6348 291.074 86.6348C286.144 86.6348 282.314 85.1536 279.584 82.1914C276.855 79.2292 275.49 74.8704 275.49 69.1152C275.49 65.4759 276.188 62.2809 277.585 59.5303C279.003 56.7585 280.96 54.632 283.457 53.1509C285.953 51.6486 288.82 50.8975 292.058 50.8975ZM291.74 56.1025C288.524 56.1025 286.144 57.1605 284.599 59.2764C283.076 61.3711 282.314 64.5343 282.314 68.7661C282.314 77.2085 285.35 81.4403 291.423 81.4614C294.597 81.4614 296.903 80.3823 298.342 78.2241C299.781 76.0448 300.5 72.7863 300.5 68.4487C300.5 60.2179 297.58 56.1025 291.74 56.1025ZM297.263 34.0127L300.532 38.8687L286.884 47.311L284.599 44.0737L297.263 34.0127ZM328.081 80.1602L335.888 56.4199L331.413 55.436V51.8813L345.981 51.564V55.436L342.395 56.1025L331.35 86H324.208L313.544 56.4199L310.275 55.436V51.8813L324.907 51.564V55.436L320.368 56.1025L328.081 80.1602ZM355.693 69.75C355.693 73.3047 356.56 76.1506 358.295 78.2876C360.03 80.4035 362.305 81.4614 365.119 81.4614C367.023 81.4614 368.79 81.1969 370.419 80.668C372.049 80.139 373.392 79.5677 374.45 78.9541C375.508 78.3193 376.037 77.9596 376.037 77.875L378.322 81.2393C378.322 81.3239 377.613 81.8529 376.196 82.8262C374.799 83.7783 373.064 84.6564 370.991 85.4604C368.938 86.2433 366.759 86.6348 364.453 86.6348C359.332 86.6348 355.45 85.0902 352.805 82.001C350.181 78.9118 348.869 74.6165 348.869 69.1152C348.869 65.6875 349.536 62.5877 350.869 59.8159C352.223 57.0441 354.106 54.8647 356.518 53.2778C358.951 51.6909 361.713 50.8975 364.802 50.8975C373.9 50.8975 378.449 55.9862 378.449 66.1636C378.449 66.8618 378.407 67.5601 378.322 68.2583C378.238 68.9565 378.174 69.4115 378.132 69.623L355.693 69.75ZM371.562 64.8623C371.562 62.2174 370.991 60.0804 369.848 58.4512C368.727 56.8008 366.928 55.9756 364.453 55.9756C361.935 55.9756 359.935 56.8219 358.454 58.5146C356.994 60.2074 356.158 62.3232 355.947 64.8623H371.562ZM388.193 40.8364C388.193 39.3976 388.605 38.2762 389.431 37.4722C390.256 36.6681 391.25 36.2661 392.414 36.2661C395.228 36.2661 396.635 37.7896 396.635 40.8364C396.635 42.2329 396.201 43.3438 395.334 44.1689C394.466 44.973 393.493 45.375 392.414 45.375C391.123 45.375 390.097 44.973 389.335 44.1689C388.574 43.3649 388.193 42.2541 388.193 40.8364ZM400.856 86H383.972V82.4136L389.494 80.7949V56.7373L383.972 55.436V51.8813L396 51.564V80.7949L400.856 82.4136V86ZM411.394 81.1758C411.394 81.2181 411.933 81.3345 413.012 81.5249C414.091 81.6942 415.371 81.7788 416.853 81.7788C421.74 81.7788 424.195 80.0649 424.216 76.6372C424.216 75.2407 423.613 74.1934 422.407 73.4951C421.222 72.7757 419.37 72.0246 416.853 71.2417C414.546 70.5011 412.674 69.7923 411.235 69.1152C409.817 68.417 408.601 67.4225 407.585 66.1318C406.569 64.82 406.062 63.1273 406.062 61.0537C406.062 57.7952 407.162 55.2879 409.362 53.5317C411.584 51.7756 414.451 50.8975 417.963 50.8975C419.487 50.8975 421.063 51.0456 422.692 51.3418C424.343 51.6169 425.739 51.9131 426.882 52.2305C428.046 52.5479 428.776 52.7594 429.072 52.8652L428.881 61.625H424.66L423.613 56.5469C423.486 56.5046 423.2 56.4199 422.756 56.293C422.333 56.166 421.73 56.0496 420.947 55.9438C420.164 55.8381 419.296 55.7852 418.344 55.7852C414.493 55.7852 412.568 57.2345 412.568 60.1333C412.568 61.5298 413.181 62.6089 414.409 63.3706C415.657 64.1112 417.53 64.894 420.026 65.7192C422.269 66.5021 424.11 67.2321 425.549 67.9092C426.988 68.5651 428.204 69.5278 429.199 70.7974C430.193 72.0457 430.69 73.6221 430.69 75.5264C430.69 79.1234 429.336 81.874 426.628 83.7783C423.92 85.6826 420.513 86.6348 416.408 86.6348C414.631 86.6348 412.98 86.529 411.457 86.3174C409.934 86.1058 408.717 85.8942 407.807 85.6826C406.897 85.471 406.337 85.3123 406.125 85.2065V75.5898H410.695L411.394 81.1758Z" fill="white"/>
</svg>
